<?xml version="1.0" standalone="no"?>
<svg version="1.0" xmlns="http://www.w3.org/2000/svg"
 width="55.000000pt" height="70.000000pt" viewBox="0 0 55.000000 70.000000"
 preserveAspectRatio="xMidYMid meet">
<g transform="translate(0.000000,70.000000) scale(0.100000,-0.100000)"
fill="#000000" stroke="none">
<path d="M0 350 l0 -350 275 0 275 0 0 350 0 350 -275 0 -275 0 0 -350z m378
227 c48 -31 82 -97 82 -156 0 -80 -64 -163 -136 -177 -133 -25 -242 65 -232
192 12 144 167 220 286 141z"/>
<path d="M223 589 c-74 -22 -133 -119 -119 -194 8 -39 42 -91 76 -117 56 -41
150 -35 205 13 87 77 81 212 -13 274 -43 28 -104 38 -149 24z"/>
</g>
</svg>
